<?xml version="1.0" encoding="iso-8859-1"?>
<!-- Generator: Adobe Illustrator 16.0.0, SVG Export Plug-In . SVG Version: 6.00 Build 0)  -->
<!DOCTYPE svg PUBLIC "-//W3C//DTD SVG 1.1//EN" "http://www.w3.org/Graphics/SVG/1.1/DTD/svg11.dtd">
<svg version="1.1" id="Capa_1" xmlns="http://www.w3.org/2000/svg" xmlns:xlink="http://www.w3.org/1999/xlink" x="0px" y="0px"
	 width="39px" height="39px" viewBox="0 0 39 39" style="enable-background:new 0 0 39 39;" xml:space="preserve">
<g>
	<path d="M28.253,21.525c-0.33,0.619-0.938,1-1.6,1h-14.31c-0.659,0-1.269-0.381-1.599-1c-0.33-0.617-0.33-1.381,0-2l3.578-6.712
		c0.329-0.619,0.938-1,1.599-1h7.153c0.659,0,1.269,0.381,1.599,1l3.578,6.712C28.583,20.146,28.583,20.908,28.253,21.525z
		 M17.753,31.775l-3.577-6.711c-0.33-0.619-0.939-1-1.599-1H5.423c-0.659,0-1.269,0.381-1.598,1l-3.578,6.711
		c-0.33,0.619-0.33,1.383,0,2c0.33,0.619,0.938,1,1.599,1h14.308c0.659,0,1.27-0.381,1.599-1
		C18.083,33.158,18.083,32.396,17.753,31.775z M38.752,31.775l-3.578-6.711c-0.33-0.619-0.938-1-1.598-1h-7.154
		c-0.659,0-1.27,0.381-1.599,1l-3.577,6.711c-0.33,0.619-0.33,1.383,0,2c0.329,0.619,0.938,1,1.598,1h14.309
		c0.66,0,1.271-0.381,1.6-1C39.083,33.158,39.083,32.396,38.752,31.775z M32.117,12.468l-0.639,2.994l-2.996,0.638l2.996,0.637
		l0.639,2.994l0.638-2.994l2.996-0.637l-2.996-0.638L32.117,12.468z M8.888,8.975L8.25,11.968l-2.996,0.638l2.996,0.637l0.638,2.994
		l0.638-2.994l2.996-0.637l-2.996-0.638L8.888,8.975z M24.139,4.225L23.5,7.218l-2.996,0.638L23.5,8.494l0.639,2.994l0.638-2.994
		l2.996-0.637l-2.996-0.638L24.139,4.225z"/>
</g>
<g>
</g>
<g>
</g>
<g>
</g>
<g>
</g>
<g>
</g>
<g>
</g>
<g>
</g>
<g>
</g>
<g>
</g>
<g>
</g>
<g>
</g>
<g>
</g>
<g>
</g>
<g>
</g>
<g>
</g>
</svg>
