<?xml version="1.0" standalone="no"?>
<!DOCTYPE svg PUBLIC "-//W3C//DTD SVG 20010904//EN"
 "http://www.w3.org/TR/2001/REC-SVG-20010904/DTD/svg10.dtd">
<svg version="1.0" xmlns="http://www.w3.org/2000/svg"
 width="108.000000pt" height="108.000000pt" viewBox="0 0 108.000000 108.000000"
 preserveAspectRatio="xMidYMid meet">
<metadata>
Created by potrace 1.14, written by Peter Selinger 2001-2017
</metadata>
<g transform="translate(0.000000,108.000000) scale(0.100000,-0.100000)"
fill="#000000" stroke="none">
<path d="M0 540 l0 -540 540 0 540 0 0 540 0 540 -540 0 -540 0 0 -540z m681
474 c242 -72 397 -309 359 -552 -24 -151 -127 -297 -258 -365 -74 -38 -99 -46
-187 -57 -91 -11 -189 5 -272 44 -314 149 -385 556 -140 800 101 102 205 145
353 145 55 1 111 -5 145 -15z"/>
<path d="M397 989 c-73 -25 -129 -59 -185 -113 -78 -73 -83 -60 89 -232 84
-84 150 -156 147 -159 -3 -4 -75 61 -160 144 -173 170 -163 168 -198 53 -53
-172 -6 -364 118 -485 l40 -39 128 146 c112 128 154 168 142 137 -1 -5 -57
-71 -123 -146 -66 -75 -121 -140 -123 -145 -5 -12 56 -46 125 -69 70 -24 186
-28 259 -10 24 6 44 13 44 15 0 2 -34 94 -75 204 -73 196 -85 234 -66 214 7
-7 118 -294 156 -402 12 -34 169 90 225 178 37 58 70 156 70 209 l0 38 -97 6
c-54 4 -155 7 -225 7 -83 0 -128 4 -128 11 0 7 72 9 225 7 l225 -3 0 33 c0 87
-72 227 -156 301 -43 39 -190 120 -198 110 -2 -2 -37 -100 -78 -218 -40 -118
-80 -217 -88 -219 -9 -3 -11 0 -5 14 35 87 144 418 139 425 -10 17 -166 9
-227 -12z"/>
</g>
</svg>
